<svg xmlns="http://www.w3.org/2000/svg" viewBox="0 0 24 24" width="48" height="48" shape-rendering="crispEdges" role="img" aria-label="emeritus professor">
  <rect x="4" y="16" width="16" height="8" fill="#4a5a3a"></rect>
  <rect x="5" y="18" width="3" height="3" fill="#6b5a3a"></rect>
  <rect x="16" y="18" width="3" height="3" fill="#6b5a3a"></rect>
  <rect x="10" y="16" width="4" height="2" fill="#fffdf5"></rect>
  <rect x="7" y="6" width="10" height="8" fill="#e7c6a3"></rect>
  <rect x="6" y="5" width="12" height="2" fill="#fffdf5"></rect>
  <rect x="5" y="6" width="2" height="4" fill="#fffdf5"></rect>
  <rect x="17" y="6" width="2" height="4" fill="#fffdf5"></rect>
  <rect x="7" y="12" width="10" height="4" fill="#fffdf5"></rect>
  <rect x="9" y="12" width="6" height="1" fill="#e7c6a3"></rect>
  <rect x="7" y="8" width="3" height="2" fill="#fffdf5"></rect>
  <rect x="13" y="8" width="3" height="2" fill="#fffdf5"></rect>
  <rect x="7" y="8" width="3" height="1" fill="#23231d"></rect>
  <rect x="13" y="8" width="3" height="1" fill="#23231d"></rect>
  <rect x="8" y="9" width="1" height="1" fill="#23231d"></rect>
  <rect x="14" y="9" width="1" height="1" fill="#23231d"></rect>
</svg>
