<svg xmlns="http://www.w3.org/2000/svg" viewBox="0 0 24 24" width="48" height="48" shape-rendering="crispEdges" role="img" aria-label="landlady">
  <rect x="4" y="16" width="16" height="8" fill="#a8627a"></rect>
  <rect x="6" y="18" width="2" height="2" fill="#d8a8b8"></rect>
  <rect x="16" y="20" width="2" height="2" fill="#d8a8b8"></rect>
  <rect x="10" y="16" width="4" height="3" fill="#e7c6a3"></rect>
  <rect x="7" y="6" width="10" height="9" fill="#e7c6a3"></rect>
  <rect x="6" y="4" width="12" height="4" fill="#c9c4bb"></rect>
  <rect x="9" y="2" width="6" height="3" fill="#c9c4bb"></rect>
  <rect x="6" y="8" width="3" height="1" fill="#23231d"></rect>
  <rect x="6" y="9" width="3" height="2" fill="#fffdf5"></rect>
  <rect x="7" y="9" width="1" height="1" fill="#23231d"></rect>
  <rect x="11" y="9" width="2" height="1" fill="#23231d"></rect>
  <rect x="11" y="9" width="3" height="2" fill="#fffdf5"></rect>
  <rect x="12" y="9" width="1" height="1" fill="#23231d"></rect>
  <rect x="9" y="10" width="2" height="1" fill="#23231d"></rect>
  <rect x="9" y="13" width="5" height="1" fill="#b5482f"></rect>
</svg>
