<svg xmlns="http://www.w3.org/2000/svg" viewBox="0 0 24 24" width="48" height="48" shape-rendering="crispEdges" role="img" aria-label="librarian">
  <rect x="4" y="16" width="16" height="8" fill="#c79a00"></rect>
  <rect x="4" y="16" width="16" height="1" fill="#8a6b00"></rect>
  <rect x="10" y="15" width="4" height="2" fill="#e7c6a3"></rect>
  <rect x="7" y="6" width="10" height="9" fill="#e7c6a3"></rect>
  <rect x="5" y="3" width="14" height="4" fill="#c9c4bb"></rect>
  <rect x="5" y="7" width="2" height="6" fill="#c9c4bb"></rect>
  <rect x="17" y="7" width="2" height="6" fill="#c9c4bb"></rect>
  <rect x="7" y="8" width="4" height="3" fill="#fffdf5"></rect>
  <rect x="13" y="8" width="4" height="3" fill="#fffdf5"></rect>
  <rect x="7" y="8" width="4" height="1" fill="#23231d"></rect>
  <rect x="13" y="8" width="4" height="1" fill="#23231d"></rect>
  <rect x="11" y="9" width="2" height="1" fill="#23231d"></rect>
  <rect x="8" y="9" width="1" height="1" fill="#23231d"></rect>
  <rect x="14" y="9" width="1" height="1" fill="#23231d"></rect>
  <rect x="10" y="12" width="4" height="1" fill="#7a4a3a"></rect>
</svg>
