<svg xmlns="http://www.w3.org/2000/svg" viewBox="0 0 32 32" width="64" height="64" shape-rendering="crispEdges" role="img" aria-label="library">
  <rect x="0" y="26" width="32" height="6" fill="#cfd9b8"></rect>
  <path d="M4 12 L16 5 L28 12 Z" fill="#c9b582"></path>
  <path d="M4 12 L16 5 L28 12 Z" fill="none" stroke="#23231d" stroke-width="1.2"></path>
  <rect x="5" y="12" width="22" height="2" fill="#bda968"></rect>
  <rect x="5" y="23" width="22" height="3" fill="#bda968"></rect>
  <g fill="#e4dcc4"><rect x="7" y="14" width="2.5" height="9"></rect><rect x="12" y="14" width="2.5" height="9"></rect><rect x="17.5" y="14" width="2.5" height="9"></rect><rect x="22.5" y="14" width="2.5" height="9"></rect></g>
  <g stroke="#23231d" stroke-width="0.7" fill="none"><rect x="7" y="14" width="2.5" height="9"></rect><rect x="12" y="14" width="2.5" height="9"></rect><rect x="17.5" y="14" width="2.5" height="9"></rect><rect x="22.5" y="14" width="2.5" height="9"></rect></g>
  <rect x="5" y="12" width="22" height="14" fill="none" stroke="#23231d" stroke-width="1.4"></rect>
</svg>