<svg xmlns="http://www.w3.org/2000/svg" viewBox="0 0 32 32" width="64" height="64" shape-rendering="crispEdges" role="img" aria-label="upscale home">
  <rect x="0" y="26" width="32" height="6" fill="#cfd9b8"></rect>
  <rect x="7" y="4" width="18" height="22" fill="#9fb1bd"></rect>
  <rect x="7" y="4" width="18" height="22" fill="none" stroke="#23231d" stroke-width="1.4"></rect>
  <rect x="6" y="3" width="20" height="2.5" fill="#6f818c"></rect>
  <g fill="#bfe0e6">
  <rect x="9" y="7" width="3.5" height="3.5"></rect><rect x="14.5" y="7" width="3.5" height="3.5"></rect><rect x="20" y="7" width="3.5" height="3.5"></rect>
  <rect x="9" y="12" width="3.5" height="3.5"></rect><rect x="14.5" y="12" width="3.5" height="3.5"></rect><rect x="20" y="12" width="3.5" height="3.5"></rect>
  <rect x="9" y="17" width="3.5" height="3.5"></rect><rect x="20" y="17" width="3.5" height="3.5"></rect>
  </g>
  <g stroke="#23231d" stroke-width="0.8" fill="none">
  <rect x="9" y="7" width="3.5" height="3.5"></rect><rect x="14.5" y="7" width="3.5" height="3.5"></rect><rect x="20" y="7" width="3.5" height="3.5"></rect>
  <rect x="9" y="12" width="3.5" height="3.5"></rect><rect x="14.5" y="12" width="3.5" height="3.5"></rect><rect x="20" y="12" width="3.5" height="3.5"></rect>
  <rect x="9" y="17" width="3.5" height="3.5"></rect><rect x="20" y="17" width="3.5" height="3.5"></rect>
  </g>
  <rect x="14" y="20" width="5" height="6" fill="#3a4750"></rect>
  <rect x="13" y="17" width="7" height="1.4" fill="#c79a00"></rect>
</svg>