<?xml version="1.0"?>

<svg xmlns="http://www.w3.org/2000/svg" width="0" height="0" style="position:absolute" aria-hidden="true">
<defs></defs>



<symbol id="loc-office" viewBox="0 0 24 24" shape-rendering="crispEdges">
  <rect x="3" y="3" width="18" height="13" fill="#23231d"></rect>
  <rect x="5" y="5" width="14" height="9" fill="#cfe3d6"></rect>
  <rect x="6" y="6" width="7" height="2" fill="#1f6f43"></rect>
  <rect x="6" y="9" width="10" height="1.5" fill="#7fae93"></rect>
  <rect x="11" y="16" width="2" height="3" fill="#23231d"></rect>
  <rect x="7" y="19" width="10" height="2" fill="#23231d"></rect>
</symbol>

<symbol id="loc-lab" viewBox="0 0 24 24" shape-rendering="crispEdges">
  <rect x="4" y="4" width="16" height="2" fill="#23231d"></rect>
  <rect x="6" y="6" width="12" height="14" fill="#dff0e6" stroke="#23231d" stroke-width="2"></rect>
  <rect x="7" y="13" width="10" height="6" fill="#1f6f43"></rect>
  <rect x="6" y="9" width="2.5" height="1.5" fill="#23231d"></rect>
  <rect x="6" y="12" width="2.5" height="1.5" fill="#23231d"></rect>
  <circle cx="11" cy="16" r="1" fill="#cfe3d6"></circle>
  <circle cx="14" cy="15" r="0.8" fill="#cfe3d6"></circle>
</symbol>

<symbol id="loc-library" viewBox="0 0 24 24" shape-rendering="crispEdges">
  <rect x="4" y="15" width="16" height="5" fill="#1f6f43" stroke="#23231d" stroke-width="1.5"></rect>
  <rect x="5" y="10" width="15" height="5" fill="#c79a00" stroke="#23231d" stroke-width="1.5"></rect>
  <rect x="4" y="5" width="16" height="5" fill="#b5482f" stroke="#23231d" stroke-width="1.5"></rect>
  <rect x="8" y="15" width="1.5" height="5" fill="#23231d"></rect>
  <rect x="15" y="10" width="1.5" height="5" fill="#23231d"></rect>
  <rect x="9" y="5" width="1.5" height="5" fill="#23231d"></rect>
</symbol>

<symbol id="loc-classroom" viewBox="0 0 24 24" shape-rendering="crispEdges">
  <rect x="4" y="3" width="16" height="12" fill="#2f3b33" stroke="#23231d" stroke-width="2"></rect>
  <rect x="6" y="6" width="9" height="1.5" fill="#dff0e6"></rect>
  <rect x="6" y="9" width="12" height="1.5" fill="#9fc0ac"></rect>
  <rect x="6" y="11.5" width="6" height="1.5" fill="#9fc0ac"></rect>
  <path d="M7 15 L5 21 M17 15 L19 21 M12 15 L12 21" stroke="#23231d" stroke-width="2" fill="none"></path>
</symbol>

<symbol id="loc-seminar_room" viewBox="0 0 24 24" shape-rendering="crispEdges">
  <rect x="9" y="3" width="6" height="9" rx="3" fill="#23231d"></rect>
  <rect x="10" y="5" width="4" height="1" fill="#8d8b77"></rect>
  <rect x="10" y="7" width="4" height="1" fill="#8d8b77"></rect>
  <rect x="10" y="9" width="4" height="1" fill="#8d8b77"></rect>
  <rect x="11" y="12" width="2" height="6" fill="#23231d"></rect>
  <rect x="6" y="18" width="12" height="2" fill="#23231d"></rect>
  <rect x="17" y="6" width="2" height="2" fill="#c79a00"></rect>
  <rect x="19" y="9" width="2" height="2" fill="#c79a00"></rect>
</symbol>

<symbol id="loc-cafe_pub" viewBox="0 0 24 24" shape-rendering="crispEdges">
  <rect x="5" y="9" width="12" height="10" fill="#fffdf5" stroke="#23231d" stroke-width="2"></rect>
  <rect x="5" y="9" width="12" height="3" fill="#6f4a2a"></rect>
  <path d="M17 11 q4 0 4 4 q0 3 -4 3" stroke="#23231d" stroke-width="2" fill="none"></path>
  <rect x="4" y="19" width="14" height="2" fill="#23231d"></rect>
  <path d="M9 3 q2 2 0 4 M13 3 q2 2 0 4" stroke="#8d8b77" stroke-width="1.5" fill="none"></path>
</symbol>

<symbol id="loc-home" viewBox="0 0 24 24" shape-rendering="crispEdges">
  <path d="M3 11 L12 3 L21 11 Z" fill="#b5482f" stroke="#23231d" stroke-width="2" stroke-linejoin="round"></path>
  <rect x="5" y="11" width="14" height="9" fill="#fffdf5" stroke="#23231d" stroke-width="2"></rect>
  <rect x="10" y="14" width="4" height="6" fill="#1f6f43"></rect>
  <rect x="6.5" y="13" width="3" height="3" fill="#cfe3d6" stroke="#23231d" stroke-width="1"></rect>
</symbol>

<symbol id="loc-conference_venue" viewBox="0 0 24 24" shape-rendering="crispEdges">
  <rect x="11" y="2" width="2" height="4" fill="#23231d"></rect>
  <rect x="5" y="5" width="14" height="15" fill="#fffdf5" stroke="#23231d" stroke-width="2"></rect>
  <rect x="5" y="5" width="14" height="4" fill="#1f6f43"></rect>
  <rect x="7" y="11" width="5" height="6" fill="#c79a00" stroke="#23231d" stroke-width="1"></rect>
  <rect x="13" y="11" width="4" height="1.5" fill="#8d8b77"></rect>
  <rect x="13" y="14" width="4" height="1.5" fill="#8d8b77"></rect>
</symbol>

<symbol id="loc-funder_portal" viewBox="0 0 24 24" shape-rendering="crispEdges">
  <rect x="3" y="6" width="18" height="12" fill="#cfe3d6" stroke="#23231d" stroke-width="2"></rect>
  <rect x="5" y="8" width="14" height="8" fill="none" stroke="#23231d" stroke-width="1"></rect>
  <text x="12" y="16" font-family="ui-monospace, monospace" font-size="11" font-weight="700" text-anchor="middle" fill="#1f6f43">£</text>
  <circle cx="7" cy="10" r="0.8" fill="#23231d"></circle>
  <circle cx="17" cy="14" r="0.8" fill="#23231d"></circle>
</symbol>

<symbol id="loc-gym_outdoors" viewBox="0 0 24 24" shape-rendering="crispEdges">
  <rect x="5" y="4" width="14" height="9" rx="3" fill="#1f6f43" stroke="#23231d" stroke-width="2"></rect>
  <rect x="8" y="6" width="3" height="2" fill="#3a9461"></rect>
  <rect x="10" y="12" width="4" height="7" fill="#6f4a2a" stroke="#23231d" stroke-width="1.5"></rect>
  <rect x="4" y="19" width="16" height="2" fill="#23231d"></rect>
</symbol>

<symbol id="loc-health_centre" viewBox="0 0 24 24" shape-rendering="crispEdges">
  <rect x="4" y="4" width="16" height="16" rx="3" fill="#fffdf5" stroke="#23231d" stroke-width="2"></rect>
  <rect x="10.5" y="7" width="3" height="10" fill="#b00020"></rect>
  <rect x="7" y="10.5" width="10" height="3" fill="#b00020"></rect>
</symbol>



<symbol id="tok-player" viewBox="0 0 16 16" shape-rendering="crispEdges">
  <rect x="3" y="10" width="10" height="5" fill="#1f6f43"></rect>
  <rect x="4" y="9" width="8" height="6" fill="#1f6f43"></rect>
  <rect x="6" y="10" width="4" height="2" fill="#fffdf5"></rect>
  <rect x="5" y="5" width="6" height="5" fill="#e7c6a3"></rect>
  <rect x="6" y="7" width="1" height="1" fill="#23231d"></rect>
  <rect x="9" y="7" width="1" height="1" fill="#23231d"></rect>
  <rect x="4" y="4" width="8" height="2" fill="#23231d"></rect>
  <rect x="1" y="2" width="14" height="2" fill="#23231d"></rect>
  <rect x="7" y="1" width="2" height="1" fill="#c79a00"></rect>
  <rect x="14" y="3" width="1" height="4" fill="#caa400"></rect>
  <rect x="13" y="7" width="2" height="2" fill="#caa400"></rect>
</symbol>

<symbol id="tok-rival1" viewBox="0 0 16 16" shape-rendering="crispEdges">
  <rect x="3" y="10" width="10" height="5" fill="#b5482f"></rect>
  <rect x="4" y="9" width="8" height="6" fill="#b5482f"></rect>
  <rect x="6" y="10" width="4" height="2" fill="#fffdf5"></rect>
  <rect x="5" y="5" width="6" height="5" fill="#e7c6a3"></rect>
  <rect x="6" y="7" width="1" height="1" fill="#23231d"></rect>
  <rect x="9" y="7" width="1" height="1" fill="#23231d"></rect>
  <rect x="4" y="4" width="8" height="2" fill="#23231d"></rect>
  <rect x="1" y="2" width="14" height="2" fill="#23231d"></rect>
  <rect x="7" y="1" width="2" height="1" fill="#c79a00"></rect>
  <rect x="14" y="3" width="1" height="4" fill="#caa400"></rect>
  <rect x="13" y="7" width="2" height="2" fill="#caa400"></rect>
</symbol>

<symbol id="tok-rival2" viewBox="0 0 16 16" shape-rendering="crispEdges">
  <rect x="3" y="10" width="10" height="5" fill="#2e6f8e"></rect>
  <rect x="4" y="9" width="8" height="6" fill="#2e6f8e"></rect>
  <rect x="6" y="10" width="4" height="2" fill="#fffdf5"></rect>
  <rect x="5" y="5" width="6" height="5" fill="#e7c6a3"></rect>
  <rect x="6" y="7" width="1" height="1" fill="#23231d"></rect>
  <rect x="9" y="7" width="1" height="1" fill="#23231d"></rect>
  <rect x="4" y="4" width="8" height="2" fill="#23231d"></rect>
  <rect x="1" y="2" width="14" height="2" fill="#23231d"></rect>
  <rect x="7" y="1" width="2" height="1" fill="#c79a00"></rect>
  <rect x="14" y="3" width="1" height="4" fill="#caa400"></rect>
  <rect x="13" y="7" width="2" height="2" fill="#caa400"></rect>
</symbol>

<symbol id="tok-rival3" viewBox="0 0 16 16" shape-rendering="crispEdges">
  <rect x="3" y="10" width="10" height="5" fill="#7a5a9e"></rect>
  <rect x="4" y="9" width="8" height="6" fill="#7a5a9e"></rect>
  <rect x="6" y="10" width="4" height="2" fill="#fffdf5"></rect>
  <rect x="5" y="5" width="6" height="5" fill="#e7c6a3"></rect>
  <rect x="6" y="7" width="1" height="1" fill="#23231d"></rect>
  <rect x="9" y="7" width="1" height="1" fill="#23231d"></rect>
  <rect x="4" y="4" width="8" height="2" fill="#23231d"></rect>
  <rect x="1" y="2" width="14" height="2" fill="#23231d"></rect>
  <rect x="7" y="1" width="2" height="1" fill="#c79a00"></rect>
  <rect x="14" y="3" width="1" height="4" fill="#caa400"></rect>
  <rect x="13" y="7" width="2" height="2" fill="#caa400"></rect>
</symbol>

<symbol id="tok-rival4" viewBox="0 0 16 16" shape-rendering="crispEdges">
  <rect x="3" y="10" width="10" height="5" fill="#b8860b"></rect>
  <rect x="4" y="9" width="8" height="6" fill="#b8860b"></rect>
  <rect x="6" y="10" width="4" height="2" fill="#fffdf5"></rect>
  <rect x="5" y="5" width="6" height="5" fill="#e7c6a3"></rect>
  <rect x="6" y="7" width="1" height="1" fill="#23231d"></rect>
  <rect x="9" y="7" width="1" height="1" fill="#23231d"></rect>
  <rect x="4" y="4" width="8" height="2" fill="#23231d"></rect>
  <rect x="1" y="2" width="14" height="2" fill="#23231d"></rect>
  <rect x="7" y="1" width="2" height="1" fill="#c79a00"></rect>
  <rect x="14" y="3" width="1" height="4" fill="#caa400"></rect>
  <rect x="13" y="7" width="2" height="2" fill="#caa400"></rect>
</symbol>



<symbol id="ui-clock" viewBox="0 0 24 24" shape-rendering="crispEdges">
  <rect x="3" y="3" width="18" height="18" rx="4" fill="#fffdf5" stroke="#23231d" stroke-width="2"></rect>
  <rect x="11" y="6" width="2" height="7" fill="#23231d"></rect>
  <rect x="12" y="11" width="5" height="2" fill="#23231d"></rect>
  <circle cx="12" cy="12" r="1.4" fill="#b00020"></circle>
</symbol>

<symbol id="ui-hourglass" viewBox="0 0 24 24" shape-rendering="crispEdges">
  <rect x="4" y="3" width="16" height="2" fill="#23231d"></rect>
  <rect x="4" y="19" width="16" height="2" fill="#23231d"></rect>
  <path d="M6 5 L18 5 L12 12 Z" fill="#cf7a00"></path>
  <path d="M12 12 L18 19 L6 19 Z" fill="#f0d8a8"></path>
  <path d="M6 5 L18 5 L12 12 L18 19 L6 19 L12 12 Z" fill="none" stroke="#23231d" stroke-width="1.5"></path>
</symbol>

<symbol id="ui-seal" viewBox="0 0 24 24" shape-rendering="crispEdges">
  <path d="M9 15 L7 22 L12 19 L17 22 L15 15 Z" fill="#b00020" stroke="#23231d" stroke-width="1.5"></path>
  <circle cx="12" cy="10" r="7" fill="#c79a00" stroke="#23231d" stroke-width="2"></circle>
  <path d="M12 5 L13.4 8.6 L17 8.6 L14 11 L15 14.5 L12 12.4 L9 14.5 L10 11 L7 8.6 L10.6 8.6 Z" fill="#fffdf5"></path>
</symbol>

<symbol id="ui-lock" viewBox="0 0 24 24" shape-rendering="crispEdges">
  <path d="M8 11 V8 a4 4 0 0 1 8 0 V11" fill="none" stroke="#23231d" stroke-width="2"></path>
  <rect x="5" y="11" width="14" height="10" rx="2" fill="#c79a00" stroke="#23231d" stroke-width="2"></rect>
  <circle cx="12" cy="15" r="1.6" fill="#23231d"></circle>
  <rect x="11.2" y="16" width="1.6" height="3" fill="#23231d"></rect>
</symbol>

<symbol id="ui-cap" viewBox="0 0 24 24" shape-rendering="crispEdges">
  <path d="M12 4 L22 9 L12 14 L2 9 Z" fill="#23231d"></path>
  <path d="M6 11 V15 q6 4 12 0 V11" fill="#34332c"></path>
  <rect x="21" y="9" width="1.5" height="6" fill="#c79a00"></rect>
  <circle cx="21.7" cy="16" r="1.5" fill="#c79a00"></circle>
</symbol>

<symbol id="ui-flag" viewBox="0 0 24 24" shape-rendering="crispEdges">
  <rect x="6" y="3" width="2" height="18" fill="#23231d"></rect>
  <path d="M8 4 L20 7 L8 11 Z" fill="#1f6f43" stroke="#23231d" stroke-width="1.5" stroke-linejoin="round"></path>
  <rect x="4" y="20" width="6" height="2" fill="#23231d"></rect>
</symbol>

<symbol id="ui-star" viewBox="0 0 24 24" shape-rendering="crispEdges">
  <path d="M12 3 L14.7 9.2 L21 9.7 L16 14 L17.5 21 L12 17 L6.5 21 L8 14 L3 9.7 L9.3 9.2 Z" fill="#c79a00" stroke="#23231d" stroke-width="1.5" stroke-linejoin="round"></path>
</symbol>
</svg>