<svg xmlns="http://www.w3.org/2000/svg" viewBox="0 0 128 64" width="256" height="128" shape-rendering="crispEdges" role="img" aria-label="cafe pub">
  <rect width="128" height="64" fill="#7a5a9e"></rect><rect y="50" width="128" height="14" fill="#3a2a14"></rect>
  <rect x="0" y="40" width="128" height="10" fill="#5a3a22"></rect><rect x="0" y="38" width="128" height="3" fill="#7a4a2a"></rect>
  <g fill="#2a1c30"><rect x="8" y="8" width="40" height="26"></rect></g>
  <g fill="#c79a00"><rect x="12" y="12" width="14" height="8"></rect><rect x="30" y="12" width="14" height="8"></rect><rect x="12" y="23" width="14" height="8"></rect><rect x="30" y="23" width="14" height="8"></rect></g>
  <rect x="86" y="20" width="14" height="20" fill="#6b6f73"></rect><rect x="88" y="14" width="4" height="8" fill="#8a8e92"></rect><circle cx="90" cy="13" r="3" fill="#cfd9dd" opacity="0.7"></circle>
  <g><rect x="58" y="18" width="9" height="10" fill="#e8c39a"></rect><rect x="56" y="16" width="13" height="3" fill="#5a3a22"></rect><rect x="55" y="28" width="15" height="12" fill="#f4f4e8"></rect></g>
  <rect x="106" y="34" width="7" height="5" fill="#efe8d6"></rect><rect x="112" y="35" width="3" height="3" fill="#efe8d6"></rect>
</svg>