<svg xmlns="http://www.w3.org/2000/svg" viewBox="0 0 128 64" width="256" height="128" shape-rendering="crispEdges" role="img" aria-label="classroom">
  <rect width="128" height="64" fill="#cdbf9e"></rect>
  <rect x="8" y="6" width="58" height="22" fill="#2f3b33"></rect><rect x="8" y="6" width="58" height="22" fill="none" stroke="#1a1a1a" stroke-width="2"></rect>
  <rect x="12" y="10" width="30" height="2" fill="#dff0e6"></rect><rect x="12" y="15" width="40" height="2" fill="#9fc0ac"></rect><rect x="12" y="20" width="22" height="2" fill="#9fc0ac"></rect>
  <g fill="#8a99a0"><rect x="74" y="14" width="46" height="5"></rect><rect x="70" y="24" width="54" height="5"></rect><rect x="66" y="34" width="62" height="5"></rect><rect x="62" y="44" width="66" height="6"></rect></g>
  <g fill="#3a4750"><rect x="80" y="9" width="5" height="6"></rect><rect x="92" y="9" width="5" height="6"></rect><rect x="104" y="9" width="5" height="6"></rect><rect x="76" y="19" width="5" height="6"></rect><rect x="100" y="19" width="5" height="6"></rect><rect x="86" y="29" width="5" height="6"></rect><rect x="110" y="29" width="5" height="6"></rect></g>
  <rect x="30" y="40" width="12" height="12" fill="#6b4a2a"></rect>
  <rect x="22" y="28" width="9" height="11" fill="#e8c39a"></rect><rect x="20" y="26" width="13" height="4" fill="#1a1a1a"></rect><rect x="21" y="39" width="11" height="11" fill="#1f6f43"></rect>
</svg>