<svg xmlns="http://www.w3.org/2000/svg" viewBox="0 0 128 64" width="256" height="128" shape-rendering="crispEdges" role="img" aria-label="funder portal">
  <rect width="128" height="64" fill="#d7cda0"></rect><rect y="50" width="128" height="14" fill="#9a8748"></rect>
  <rect x="74" y="10" width="44" height="32" fill="#23231d"></rect><rect x="77" y="13" width="38" height="26" fill="#eef1ee"></rect>
  <rect x="80" y="16" width="24" height="2" fill="#b00020"></rect><g fill="#9aa"><rect x="80" y="21" width="32" height="1.6"></rect><rect x="80" y="25" width="32" height="1.6"></rect><rect x="80" y="29" width="20" height="1.6"></rect></g>
  <text x="108" y="37" font-family="monospace" font-size="6" font-weight="700" fill="#1f6f43">£</text>
  <rect x="86" y="42" width="20" height="3" fill="#6b6f73"></rect>
  <g><rect x="20" y="20" width="9" height="10" fill="#e8c39a"></rect><rect x="18" y="18" width="13" height="3" fill="#bbb"></rect><rect x="17" y="30" width="15" height="14" fill="#37414b"></rect></g>
  <g><rect x="42" y="22" width="8" height="9" fill="#e8c39a"></rect><rect x="40" y="20" width="12" height="3" fill="#999"></rect><rect x="39" y="31" width="14" height="12" fill="#2a323a"></rect></g>
</svg>