<svg xmlns="http://www.w3.org/2000/svg" viewBox="0 0 128 64" width="256" height="128" shape-rendering="crispEdges" role="img" aria-label="health centre">
  <rect width="128" height="64" fill="#eef1ee"></rect><rect y="48" width="128" height="16" fill="#bfccc6"></rect>
  <g fill="#b00020"><rect x="100" y="8" width="4" height="14"></rect><rect x="95" y="13" width="14" height="4"></rect></g>
  <rect x="74" y="34" width="46" height="8" fill="#cfe0ea"></rect><rect x="74" y="30" width="14" height="6" fill="#b9d0dc"></rect><rect x="76" y="42" width="3" height="8" fill="#7a8e96"></rect><rect x="115" y="42" width="3" height="8" fill="#7a8e96"></rect>
  <rect x="10" y="14" width="16" height="30" fill="#dfe6e2" stroke="#9fb1ac" stroke-width="1.5"></rect><rect x="10" y="26" width="16" height="2" fill="#9fb1ac"></rect>
  <g><rect x="40" y="14" width="11" height="12" fill="#e8c39a"></rect><rect x="38" y="12" width="15" height="4" fill="#5a4632"></rect><rect x="36" y="26" width="19" height="18" fill="#f4f4f4"></rect><rect x="44" y="30" width="3" height="10" fill="#3a6ea5"></rect></g>
  <circle cx="42" cy="20" r="1" fill="#1a1a1a"></circle><circle cx="48" cy="20" r="1" fill="#1a1a1a"></circle>
</svg>