<svg xmlns="http://www.w3.org/2000/svg" viewBox="0 0 128 64" width="256" height="128" shape-rendering="crispEdges" role="img" aria-label="home">
  <rect width="128" height="64" fill="#d8c7a6"></rect><rect y="46" width="128" height="18" fill="#a9854f"></rect>
  <rect x="10" y="10" width="20" height="16" fill="#7a3b2a"></rect><rect x="13" y="13" width="14" height="10" fill="#c98f54"></rect>
  <rect x="78" y="38" width="42" height="8" fill="#6b7f8a"></rect><rect x="80" y="30" width="38" height="8" fill="#54707b"></rect>
  <rect x="74" y="44" width="50" height="3" fill="#3a4a52"></rect>
  <rect x="36" y="34" width="34" height="3" fill="#5a4632"></rect><rect x="38" y="37" width="3" height="9" fill="#4a3826"></rect><rect x="65" y="37" width="3" height="9" fill="#4a3826"></rect>
  <rect x="44" y="26" width="16" height="9" fill="#cfd9dd"></rect><rect x="45" y="27" width="14" height="6" fill="#3a6ea5"></rect><rect x="48" y="35" width="8" height="2" fill="#23231d"></rect>
  <rect x="40" y="30" width="4" height="6" fill="#e8c39a"></rect>
  <circle cx="22" cy="40" r="5" fill="#2f8f6b"></circle><rect x="20" y="40" width="4" height="6" fill="#6b4a2a"></rect>
</svg>