<svg xmlns="http://www.w3.org/2000/svg" viewBox="0 0 128 64" width="256" height="128" shape-rendering="crispEdges" role="img" aria-label="lab">
  <rect width="128" height="64" fill="#cdd6d2"></rect><rect y="48" width="128" height="16" fill="#8aa39a"></rect>
  <rect x="78" y="8" width="42" height="40" fill="#b9c6c2"></rect><rect x="78" y="8" width="42" height="40" fill="none" stroke="#5a6f69" stroke-width="2"></rect><rect x="80" y="10" width="38" height="20" fill="#aee0d0"></rect>
  <rect x="10" y="38" width="58" height="4" fill="#e4ece8"></rect><rect x="10" y="42" width="58" height="6" fill="#9fb1ac"></rect>
  <rect x="16" y="28" width="6" height="10" fill="#2f8f6b" opacity="0.8"></rect><rect x="15" y="26" width="8" height="3" fill="#cbe0d4"></rect>
  <rect x="28" y="30" width="5" height="8" fill="#c79a00" opacity="0.7"></rect><circle cx="44" cy="34" r="4" fill="none" stroke="#23231d" stroke-width="1.4"></circle><rect x="43" y="26" width="2" height="6" fill="#23231d"></rect>
  <g><rect x="54" y="18" width="8" height="10" fill="#e8c39a"></rect><rect x="52" y="20" width="12" height="3" fill="#23231d"></rect><rect x="50" y="28" width="16" height="12" fill="#eef1ee"></rect><rect x="49" y="40" width="18" height="8" fill="#dfe6e2"></rect></g>
</svg>