<svg xmlns="http://www.w3.org/2000/svg" viewBox="0 0 128 64" width="256" height="128" shape-rendering="crispEdges" role="img" aria-label="library">
  <rect width="128" height="64" fill="#c9bb98"></rect><rect y="50" width="128" height="14" fill="#7a5a32"></rect>
  <g>
  <rect x="6" y="6" width="34" height="44" fill="#5a3a22"></rect>
  <rect x="8" y="8" width="30" height="9" fill="#b5482f"></rect><rect x="8" y="19" width="30" height="9" fill="#1f6f43"></rect><rect x="8" y="30" width="30" height="9" fill="#c79a00"></rect><rect x="8" y="41" width="30" height="7" fill="#3a6ea5"></rect>
  </g>
  <g fill="#23231d" opacity="0.5"><rect x="11" y="8" width="1" height="9"></rect><rect x="16" y="8" width="1" height="9"></rect><rect x="22" y="8" width="1" height="9"></rect><rect x="28" y="8" width="1" height="9"></rect><rect x="14" y="19" width="1" height="9"></rect><rect x="20" y="19" width="1" height="9"></rect><rect x="26" y="19" width="1" height="9"></rect><rect x="13" y="30" width="1" height="9"></rect><rect x="19" y="30" width="1" height="9"></rect><rect x="25" y="30" width="1" height="9"></rect><rect x="31" y="30" width="1" height="9"></rect></g>
  <rect x="86" y="6" width="34" height="44" fill="#5a3a22"></rect>
  <g fill="#7a9aa6"><rect x="88" y="8" width="30" height="9"></rect><rect x="88" y="19" width="30" height="9"></rect><rect x="88" y="30" width="30" height="9"></rect><rect x="88" y="41" width="30" height="7"></rect></g>
  <rect x="52" y="40" width="26" height="4" fill="#5a4632"></rect><rect x="54" y="44" width="3" height="8" fill="#4a3826"></rect><rect x="73" y="44" width="3" height="8" fill="#4a3826"></rect>
  <rect x="58" y="30" width="6" height="10" fill="#c79a00"></rect><circle cx="61" cy="29" r="3" fill="#f2d479"></circle>
  <rect x="66" y="35" width="8" height="5" fill="#efe8d6"></rect>
</svg>