<svg xmlns="http://www.w3.org/2000/svg" viewBox="0 0 128 64" width="256" height="128" shape-rendering="crispEdges" role="img" aria-label="office">
  <rect width="128" height="64" fill="#dcd6c3"></rect><rect y="48" width="128" height="16" fill="#9a824f"></rect>
  <rect x="84" y="8" width="36" height="40" fill="#6b4a2a"></rect>
  <g fill="#b5482f"><rect x="86" y="10" width="32" height="2"></rect></g>
  <g fill="#c9b582"><rect x="86" y="14" width="32" height="8"></rect><rect x="86" y="24" width="32" height="8"></rect><rect x="86" y="34" width="32" height="8"></rect></g>
  <g fill="#7a6a4a"><rect x="89" y="14" width="2" height="8"></rect><rect x="96" y="14" width="2" height="8"></rect><rect x="104" y="24" width="2" height="8"></rect><rect x="92" y="34" width="2" height="8"></rect></g>
  <rect x="14" y="34" width="44" height="4" fill="#5a4632"></rect><rect x="16" y="38" width="3" height="10" fill="#4a3826"></rect><rect x="52" y="38" width="3" height="10" fill="#4a3826"></rect>
  <rect x="22" y="20" width="22" height="14" fill="#23231d"></rect><rect x="24" y="22" width="18" height="10" fill="#3a6ea5"></rect><rect x="31" y="34" width="4" height="3" fill="#23231d"></rect>
  <rect x="20" y="40" width="14" height="3" fill="#c79a00"></rect>
  <rect x="60" y="30" width="10" height="10" fill="#37414b"></rect><rect x="62" y="24" width="6" height="8" fill="#2a323a"></rect>
</svg>