<svg xmlns="http://www.w3.org/2000/svg" viewBox="0 0 128 64" width="256" height="128" shape-rendering="crispEdges" role="img" aria-label="park east">
  <rect width="128" height="40" fill="#bfe0e6"></rect><rect y="36" width="128" height="28" fill="#a8c389"></rect>
  <ellipse cx="78" cy="52" rx="46" ry="11" fill="#7fb4cf"></ellipse><ellipse cx="78" cy="52" rx="46" ry="11" fill="none" stroke="#5a93ad" stroke-width="1.5"></ellipse>
  <path d="M50 50 q4 -2 8 0 M64 54 q4 -2 8 0 M84 49 q4 -2 8 0" stroke="#cfe6ef" stroke-width="1.4" fill="none"></path>
  <g><ellipse cx="70" cy="48" rx="4" ry="2.4" fill="#efe8d6"></ellipse><rect x="73" y="45" width="3" height="3" fill="#efe8d6"></rect><rect x="75" y="46" width="2" height="1.5" fill="#c79a00"></rect></g>
  <rect x="22" y="20" width="5" height="20" fill="#6b4a2a"></rect><circle cx="24" cy="16" r="12" fill="#2f8f6b"></circle><circle cx="14" cy="20" r="7" fill="#36a07a"></circle>
  <g fill="#1f6f43"><rect x="106" y="40" width="2" height="10"></rect><rect x="110" y="38" width="2" height="12"></rect><rect x="114" y="41" width="2" height="9"></rect></g>
</svg>