<svg xmlns="http://www.w3.org/2000/svg" viewBox="0 0 128 64" width="256" height="128" shape-rendering="crispEdges" role="img" aria-label="walk">
  <rect width="128" height="38" fill="#cfe6ec"></rect><rect y="34" width="128" height="30" fill="#a8c389"></rect>
  <circle cx="110" cy="12" r="7" fill="#f2d479"></circle>
  <rect x="0" y="44" width="128" height="14" fill="#cbb88a"></rect><rect x="0" y="44" width="128" height="2" fill="#b8a578"></rect>
  <g fill="#e6d6ad"><rect x="6" y="50" width="10" height="3"></rect><rect x="30" y="50" width="10" height="3"></rect><rect x="54" y="50" width="10" height="3"></rect><rect x="78" y="50" width="10" height="3"></rect><rect x="102" y="50" width="10" height="3"></rect></g>
  <rect x="14" y="22" width="3" height="12" fill="#6b4a2a"></rect><circle cx="15" cy="19" r="7" fill="#2f8f6b"></circle>
  <rect x="108" y="24" width="3" height="10" fill="#6b4a2a"></rect><circle cx="109" cy="21" r="6" fill="#3a9a72"></circle>
  <g fill="#9aa6ac" opacity="0.5"><rect x="40" y="14" width="14" height="20"></rect><rect x="74" y="10" width="16" height="24"></rect></g>
</svg>